<?xml version="1.0" encoding="UTF-8"?><svg id="Layer_1" xmlns="http://www.w3.org/2000/svg" viewBox="0 0 1312.5 1312.5"><defs><style>.cls-1{fill:#494848;}.cls-2{fill:none;stroke:#494848;}.cls-2,.cls-3{stroke-linejoin:round;stroke-width:25px;}.cls-3{fill:#fff;stroke:#fff;}</style></defs><circle class="cls-3" cx="656.25" cy="656.25" r="643.75"/><g><rect class="cls-1" x="627.81" y="321.52" width="163.82" height="148.72" rx="32.44" ry="32.44" transform="translate(133.87 969.3) rotate(-74.03)"/><polyline class="cls-1" points="773.32 328.83 803.3 224.08 721.18 200.58 691.2 305.33"/><path class="cls-1" d="M727.49,486.16c-254.37,243.81-410.39,536.05-410.39,536.05l11.06-147.58s72.03-148.89,318.72-411.54"/><path class="cls-1" d="M666.04,548.5c62.05,316.09,45.53,586.59,45.53,586.59l68.68-131.09s17.63-164.45-52.78-517.85"/><path class="cls-2" d="M816.26,653.65c50.08,21.67,79.68,47.11,76.94,71.18-5.48,48.13-138.25,72.55-296.56,54.54-158.31-18.01-282.2-71.63-276.73-119.76,3.29-28.9,52.46-49.25,125.5-57"/></g></svg>