<?xml version="1.0" encoding="UTF-8"?><svg id="Layer_2" xmlns="http://www.w3.org/2000/svg" viewBox="0 0 1287.5 1287.5"><defs><style>.cls-1{fill:#fff;}.cls-2{fill:#494848;}.cls-3{fill:none;stroke:#fff;stroke-miterlimit:10;stroke-width:25px;}</style></defs><g id="Layer_1-2"><circle class="cls-2" cx="643.75" cy="643.75" r="643.75"/><g><rect class="cls-1" x="615.31" y="309.02" width="163.82" height="148.72" rx="32.44" ry="32.44" transform="translate(136.82 948.22) rotate(-74.03)"/><polyline class="cls-1" points="760.82 316.33 790.8 211.58 708.68 188.08 678.7 292.83"/><path class="cls-1" d="M714.99,473.66c-254.37,243.81-410.39,536.05-410.39,536.05l11.06-147.58s72.03-148.89,318.72-411.54"/><path class="cls-1" d="M653.54,536c62.05,316.09,45.53,586.59,45.53,586.59l68.68-131.09s17.63-164.45-52.78-517.85"/><path class="cls-3" d="M803.76,641.15c50.08,21.67,79.68,47.11,76.94,71.18-5.48,48.13-138.25,72.55-296.56,54.54-158.31-18.01-282.2-71.63-276.73-119.76,3.29-28.9,52.46-49.25,125.5-57"/></g></g></svg>